<svg width="21" height="21" viewBox="0 0 21 21" fill="none" xmlns="http://www.w3.org/2000/svg">
<g opacity="0.8">
<path fill-rule="evenodd" clip-rule="evenodd" d="M10.426 6.23977C10.4841 6.18157 10.5531 6.13539 10.629 6.10388C10.7049 6.07237 10.7863 6.05615 10.8685 6.05615C10.9508 6.05615 11.0322 6.07237 11.1081 6.10388C11.184 6.13539 11.253 6.18157 11.311 6.23977L15.061 9.98977C15.1193 10.0478 15.1654 10.1168 15.1969 10.1927C15.2284 10.2687 15.2447 10.3501 15.2447 10.4323C15.2447 10.5145 15.2284 10.5959 15.1969 10.6718C15.1654 10.7477 15.1193 10.8167 15.061 10.8748L11.311 14.6248C11.1937 14.7421 11.0345 14.8081 10.8685 14.8081C10.7026 14.8081 10.5434 14.7421 10.426 14.6248C10.3087 14.5074 10.2428 14.3482 10.2428 14.1823C10.2428 14.0163 10.3087 13.8571 10.426 13.7398L13.7348 10.4323L10.426 7.12477C10.3678 7.06671 10.3217 6.99774 10.2902 6.92181C10.2587 6.84588 10.2424 6.76448 10.2424 6.68227C10.2424 6.60006 10.2587 6.51866 10.2902 6.44273C10.3217 6.3668 10.3678 6.29783 10.426 6.23977Z" fill="white"/>
<path fill-rule="evenodd" clip-rule="evenodd" d="M5.24365 10.4323C5.24365 10.2665 5.3095 10.1075 5.42671 9.99031C5.54392 9.8731 5.70289 9.80725 5.86865 9.80725H13.9937C14.1594 9.80725 14.3184 9.8731 14.4356 9.99031C14.5528 10.1075 14.6187 10.2665 14.6187 10.4323C14.6187 10.598 14.5528 10.757 14.4356 10.8742C14.3184 10.9914 14.1594 11.0573 13.9937 11.0573H5.86865C5.70289 11.0573 5.54392 10.9914 5.42671 10.8742C5.3095 10.757 5.24365 10.598 5.24365 10.4323Z" fill="white"/>
</g>
</svg>
