<svg width="27" height="27" viewBox="0 0 27 27" fill="none" xmlns="http://www.w3.org/2000/svg">
<circle cx="13.1679" cy="13.7539" r="12.8388" fill="white"/>
<path d="M18.8168 11.1058C18.8105 10.6325 18.7219 10.1638 18.5549 9.72082C18.4101 9.34717 18.189 9.00782 17.9056 8.72446C17.6223 8.44111 17.2829 8.21998 16.9093 8.0752C16.472 7.91104 16.01 7.82228 15.543 7.8127C14.9418 7.78582 14.7511 7.77832 13.2249 7.77832C11.6986 7.77832 11.503 7.77832 10.9061 7.8127C10.4394 7.82235 9.97762 7.91111 9.54052 8.0752C9.16681 8.21988 8.82741 8.44097 8.54404 8.72434C8.26068 9.00771 8.03958 9.34711 7.8949 9.72082C7.73042 10.1578 7.64185 10.6196 7.63302 11.0864C7.60615 11.6883 7.59802 11.8789 7.59802 13.4052C7.59802 14.9314 7.59802 15.1264 7.63302 15.7239C7.6424 16.1914 7.73052 16.6527 7.8949 17.0908C8.03982 17.4644 8.26108 17.8037 8.54454 18.0869C8.82801 18.3702 9.16744 18.5912 9.54115 18.7358C9.97704 18.9066 10.4389 19.0017 10.9068 19.0171C11.5086 19.0439 11.6993 19.0521 13.2255 19.0521C14.7518 19.0521 14.9474 19.0521 15.5443 19.0171C16.0112 19.0079 16.4732 18.9193 16.9105 18.7552C17.2841 18.6102 17.6233 18.3891 17.9067 18.1057C18.19 17.8224 18.4112 17.4831 18.5561 17.1096C18.7205 16.6721 18.8086 16.2108 18.818 15.7427C18.8449 15.1414 18.853 14.9508 18.853 13.4239C18.8518 11.8977 18.8518 11.7039 18.8168 11.1058ZM13.2211 16.2914C11.6249 16.2914 10.3318 14.9983 10.3318 13.4021C10.3318 11.8058 11.6249 10.5127 13.2211 10.5127C13.9875 10.5127 14.7224 10.8171 15.2642 11.359C15.8061 11.9008 16.1105 12.6358 16.1105 13.4021C16.1105 14.1684 15.8061 14.9033 15.2642 15.4452C14.7224 15.987 13.9875 16.2914 13.2211 16.2914ZM16.2255 11.0796C15.8524 11.0796 15.5518 10.7783 15.5518 10.4058C15.5518 10.3174 15.5692 10.2298 15.603 10.1481C15.6369 10.0664 15.6865 9.99216 15.749 9.92963C15.8116 9.86709 15.8858 9.81749 15.9675 9.78365C16.0492 9.7498 16.1368 9.73238 16.2252 9.73238C16.3136 9.73238 16.4012 9.7498 16.4829 9.78365C16.5646 9.81749 16.6389 9.86709 16.7014 9.92963C16.7639 9.99216 16.8135 10.0664 16.8474 10.1481C16.8812 10.2298 16.8986 10.3174 16.8986 10.4058C16.8986 10.7783 16.5974 11.0796 16.2255 11.0796Z" fill="#272727"/>
<path d="M13.2211 15.2787C14.2577 15.2787 15.098 14.4383 15.098 13.4018C15.098 12.3652 14.2577 11.5249 13.2211 11.5249C12.1845 11.5249 11.3442 12.3652 11.3442 13.4018C11.3442 14.4383 12.1845 15.2787 13.2211 15.2787Z" fill="#272727"/>
</svg>
