<svg width="422" height="360" viewBox="0 0 422 360" fill="none" xmlns="http://www.w3.org/2000/svg">
<g opacity="0.02" clip-path="url(#clip0_902_495)">
<path d="M384.781 286.764L375.332 267.043L368.765 253.338L375.895 247.666C378.7 245.435 379.835 241.703 378.747 238.289L370.959 213.851V172.056C370.959 167.288 367.094 163.423 362.326 163.423H322.173L307.283 139.315C305.71 136.768 302.931 135.218 299.938 135.218H251.746V114.816C251.746 112.205 250.563 109.733 248.53 108.095L227.582 91.2117L245.27 70.0492L291.405 41.4357C293.795 39.9544 295.312 37.4025 295.474 34.596C295.636 31.7894 294.421 29.0805 292.218 27.334L260.089 1.86725C256.827 -0.717416 252.187 -0.60778 249.051 2.1271L212.5 34.0115H177.992C175.863 34.0115 173.808 34.7988 172.224 36.2215L151.9 54.4722C150.076 56.1089 149.035 58.445 149.035 60.895V83.3679L101.247 122.742L98.9944 118.727C96.661 114.569 91.401 113.09 87.2417 115.422C83.0841 117.754 81.6036 123.016 83.9362 127.174L99.6756 155.232V217.681C99.6756 218.812 99.8974 219.93 100.329 220.975L107.367 238.018L92.6312 242.623C91.1929 243.072 89.8972 243.89 88.8733 244.996L59.6694 276.52C58.0041 278.318 57.1814 280.737 57.405 283.176C57.6286 285.615 58.8786 287.845 60.8426 289.309L105.362 322.492C106.853 323.603 108.662 324.203 110.521 324.203H149.218L210.008 371.545V386.083C210.008 390.851 213.873 394.715 218.641 394.715H267.452L260.04 421.077C259.309 423.679 259.838 426.472 261.47 428.626C263.102 430.781 265.648 432.045 268.351 432.045H279.248L297.806 441.122C299.003 441.707 300.3 442 301.599 442C302.942 442 304.284 441.687 305.515 441.061C307.932 439.831 309.631 437.536 310.101 434.865L324.204 354.813C324.58 352.677 324.139 350.478 322.968 348.654L310.232 328.801V318.395H324.413C327.628 318.395 330.578 316.608 332.066 313.757C333.554 310.906 333.334 307.464 331.495 304.826L321.872 291.02H350.543C352.28 291.02 353.978 290.496 355.412 289.516L364.112 283.575L369.214 294.224C370.698 297.321 373.787 299.129 377.006 299.129C378.256 299.129 379.527 298.856 380.73 298.279C385.026 296.219 386.842 291.063 384.781 286.764ZM295.084 420.572L285.037 415.658C283.856 415.08 282.558 414.78 281.243 414.78H279.744L288.789 382.612C289.823 378.935 288.316 375.015 285.085 372.975C281.856 370.937 277.668 371.263 274.793 373.779L270.597 377.45H227.273V367.326C227.273 364.665 226.044 362.151 223.945 360.515L188.905 333.227H293.196C293.417 334.202 293.785 335.142 294.33 335.992L306.612 355.137L295.084 420.572ZM115.839 148.752L109.83 138.042L163.158 94.1037C165.149 92.4643 166.301 90.0204 166.301 87.4409V64.7452L181.3 51.2771H215.738C217.824 51.2771 219.84 50.5218 221.413 49.15L254.991 19.858L271.868 33.2363L234.988 56.1098C234.205 56.5958 233.505 57.2027 232.914 57.9097L208.698 86.8823C207.213 88.6598 206.504 90.9587 206.731 93.2646C206.958 95.5695 208.102 97.6872 209.905 99.1409L234.48 118.947V143.852C234.48 148.62 238.345 152.485 243.113 152.485H295.123L310.014 176.594C311.587 179.14 314.366 180.69 317.359 180.69H353.693V207.187H278.583C273.815 207.187 269.95 211.052 269.95 215.82C269.95 220.588 273.815 224.453 278.583 224.453H356.217L360.488 237.859L352.633 244.108C349.482 246.614 348.482 250.964 350.221 254.595L356.56 267.823L347.873 273.754H305.329C302.113 273.754 299.163 275.541 297.676 278.393C296.188 281.243 296.408 284.685 298.247 287.323L307.87 301.13H301.596C296.828 301.13 292.963 304.995 292.963 309.763V315.961H166.736L157.489 308.759C155.973 307.578 154.106 306.937 152.184 306.937H113.385L78.8644 281.207L99.9777 258.418L121.523 251.685C123.835 250.963 125.738 249.302 126.765 247.108C127.793 244.915 127.852 242.39 126.928 240.151L120.445 224.453H200.888C205.655 224.453 209.52 220.588 209.52 215.82C209.52 211.052 205.655 207.187 200.888 207.187H116.942V152.976C116.917 152.285 116.814 151.394 116.51 150.401C116.313 149.757 116.073 149.206 115.839 148.752Z" fill="black"/>
<path d="M239.731 207.188C237.461 207.188 235.233 208.111 233.628 209.717C232.022 211.323 231.098 213.55 231.098 215.82C231.098 218.091 232.022 220.318 233.628 221.924C235.233 223.529 237.461 224.453 239.731 224.453C242.001 224.453 244.229 223.529 245.843 221.924C247.449 220.318 248.364 218.091 248.364 215.82C248.364 213.55 247.449 211.323 245.843 209.717C244.229 208.111 242.01 207.188 239.731 207.188Z" fill="black"/>
</g>
<defs>
<clipPath id="clip0_902_495">
<rect width="421" height="360" fill="white" transform="translate(0.5)"/>
</clipPath>
</defs>
</svg>
