<svg width="46" height="46" viewBox="0 0 46 46" fill="none" xmlns="http://www.w3.org/2000/svg">
<g clip-path="url(#clip0_902_482)">
<path d="M24.6944 45.3607C24.4797 45.4129 24.2707 45.4652 24.056 45.5C26.6382 45.4381 29.1904 44.9314 31.6005 44.0021C31.374 43.5853 31.2171 43.1343 31.1362 42.6668C31.1088 42.5741 31.0678 42.4861 31.0144 42.4056C30.7474 41.8831 30.4804 41.3547 30.2077 40.8322C30.1759 40.7626 30.137 40.6964 30.0916 40.6348C29.1671 39.4101 28.4188 38.0616 27.8689 36.6289C27.7544 36.2829 27.7033 35.919 27.718 35.5548C27.7346 35.3818 27.7052 35.2075 27.6329 35.0495C27.5605 34.8915 27.4477 34.7554 27.3059 34.655C27.177 34.5485 27.0549 34.4341 26.9403 34.3124C26.8997 34.2776 26.8301 34.2137 26.801 34.2253C26.5573 34.324 26.4819 34.1382 26.3716 33.9931L25.4024 32.6984C25.2167 33.1339 25.0774 33.5112 24.9033 33.8596C24.8511 33.9699 24.7292 34.0454 24.6363 34.1382C24.5771 34.183 24.5244 34.2357 24.4797 34.295C24.426 34.3858 24.385 34.4834 24.3578 34.5853C24.1826 35.3312 23.8051 36.0142 23.2667 36.5592C23.013 36.9233 22.8516 37.3438 22.7967 37.7842C22.5413 38.8176 22.3208 39.8685 22.0944 40.9135C22.0828 41.008 22.0828 41.1035 22.0944 41.198C22.0944 41.4302 22.0944 41.6624 22.0944 41.8947C22.107 42.2692 22.1615 42.6412 22.2569 43.0036C22.3208 43.2068 22.5587 43.3577 22.7386 43.5086C23.1971 43.8918 23.8065 43.7815 24.3288 43.9499C24.5493 44.0192 24.76 44.1168 24.9555 44.2402C25.0587 44.3094 25.1369 44.41 25.1787 44.527C25.2205 44.6441 25.2237 44.7714 25.1877 44.8904C25.1637 45.0078 25.104 45.115 25.0167 45.1971C24.9294 45.2792 24.8188 45.3323 24.7002 45.3491" fill="#F55C30"/>
<path d="M23.4698 0.500003C17.8437 0.491769 12.4188 2.59295 8.26504 6.3891C4.11132 10.1852 1.53039 15.4007 1.03134 21.0068C0.532293 26.6129 2.15135 32.2026 5.56917 36.6732C8.98698 41.1439 13.9554 44.171 19.4944 45.1575C19.4461 45.0926 19.4132 45.0176 19.3981 44.9382C19.3831 44.8587 19.3862 44.7769 19.4074 44.6988C19.5002 44.2982 19.6337 43.9034 19.7382 43.5028C19.7904 43.3171 19.8194 43.1197 19.8542 42.9223C19.9586 42.4204 19.9995 41.9074 19.9761 41.3954C19.9761 41.1806 19.9761 40.9599 19.9761 40.7451C19.8704 39.5653 19.9192 38.3767 20.1212 37.2095C20.3076 36.3676 20.7073 35.5879 21.2819 34.9452C21.538 34.6099 21.6876 34.2054 21.7113 33.7841C21.7129 33.7568 21.7073 33.7296 21.695 33.7052C21.6828 33.6807 21.6644 33.6599 21.6417 33.6448C21.4386 33.5286 21.4502 33.3719 21.5198 33.1803C21.7178 32.7165 21.8827 32.2393 22.0131 31.7521C22.0884 31.3523 22.1118 30.9445 22.0828 30.5387C22.0408 30.1826 22.0949 29.8218 22.2394 29.4937C22.4169 29.1452 22.4523 28.7414 22.3381 28.3674L20.9801 28.9479C20.8611 29.0019 20.7333 29.0333 20.6029 29.0408C19.768 29.0711 18.932 29.04 18.1016 28.9479C16.8422 28.7447 16.0356 28.0248 16.1168 26.4109C16.1688 25.8531 16.1316 25.2906 16.0065 24.7446C15.9652 24.8017 15.9284 24.8619 15.8963 24.9246C15.717 25.2958 15.4376 25.6095 15.0896 25.8303C14.9689 25.9043 14.8267 25.9348 14.6863 25.9169C14.5459 25.8989 14.4159 25.8336 14.3177 25.7316C14.4512 25.6503 14.5847 25.569 14.7124 25.4819C15.1796 25.1872 15.5444 24.7553 15.757 24.2453C15.7974 24.1347 15.7974 24.0134 15.757 23.9028C15.5511 23.3445 15.4393 22.756 15.4262 22.1611C15.3972 21.7203 15.3972 21.2781 15.4262 20.8374C15.4889 20.4051 15.6674 19.9979 15.9427 19.6588C16.1458 19.3569 16.3315 19.0434 16.5695 18.6719L15.8905 18.8112C15.7396 18.846 15.6467 18.8112 15.6409 18.6254C15.6409 18.2074 15.6061 18.2016 15.2057 18.1551C14.8052 18.1087 14.8633 18.0506 14.9097 17.7371C14.9891 17.4379 14.9851 17.1227 14.8981 16.8256C14.6637 16.3159 14.5728 15.7519 14.6352 15.1943C14.6975 14.6368 14.9109 14.1068 15.2521 13.6615C15.5256 13.2672 15.8777 12.9338 16.2861 12.682C16.6946 12.4302 17.1507 12.2656 17.6257 12.1985C18.0633 12.0869 18.51 12.015 18.9605 11.9837C19.4507 11.9217 19.9485 11.9918 20.4025 12.1867C20.8565 12.3817 21.2503 12.6944 21.543 13.0926C21.6707 13.2725 21.839 13.4177 21.9609 13.5977C22.2627 14.0389 22.5412 14.4917 22.872 14.9852C23.083 14.6704 23.2363 14.3204 23.3247 13.9518C23.3659 13.5101 23.2598 13.0671 23.0229 12.692C22.8053 12.3092 22.6394 11.8992 22.5296 11.4728C22.5108 11.2914 22.5493 11.1086 22.6399 10.9503C22.7838 10.5974 22.9979 10.2775 23.2693 10.01C23.5407 9.74251 23.8636 9.53304 24.2184 9.39434C24.5097 9.28544 24.8247 9.25655 25.1309 9.31066C25.4371 9.36477 25.7232 9.49991 25.9595 9.70204C26.1314 9.82131 26.2925 9.95535 26.4411 10.1026C26.5265 10.1947 26.6328 10.265 26.7509 10.3074C26.8691 10.3498 26.9957 10.3632 27.1202 10.3465C27.5322 10.3465 27.95 10.3465 28.4027 10.3174C28.217 11.1535 27.4974 11.1128 26.9054 11.2406C26.7894 11.7771 26.8632 12.3374 27.1143 12.8255C27.1334 12.8527 27.1453 12.8843 27.1489 12.9173C27.1525 12.9504 27.1477 12.9838 27.135 13.0144C27.1222 13.0451 27.102 13.0721 27.0761 13.0929C27.0501 13.1136 27.0194 13.1275 26.9867 13.1332C26.7952 13.1855 26.7778 13.3074 26.7952 13.4699C26.8039 13.5179 26.8039 13.5671 26.7952 13.6151C26.6952 13.8452 26.6669 14.1001 26.7139 14.3466C26.7719 14.5324 26.5862 14.6021 26.4121 14.6137C26.1792 14.6116 25.9464 14.6272 25.7157 14.6601C25.4488 14.7066 25.263 15.1942 25.3849 15.4381C25.6345 15.9025 25.8782 16.3728 26.122 16.8373C26.1399 16.8686 26.1613 16.8978 26.1858 16.9243L28.0603 18.666C28.2112 18.5557 28.2518 18.1784 28.5768 18.3583C28.6407 18.3932 28.6116 18.608 28.6291 18.7589C28.7509 18.7589 28.9308 18.7589 28.896 19.0434C28.896 19.1479 29.0179 19.3105 29.1282 19.386C29.4183 19.5717 29.2616 19.7517 29.163 19.9665C28.9715 20.3845 28.5826 20.5935 28.2634 20.9187C27.9442 21.2438 27.6018 21.5573 27.2768 21.8882C27.2148 21.9671 27.1857 22.067 27.1956 22.1669C27.2768 22.881 27.3813 23.5951 27.451 24.3092C27.4858 24.6343 27.6193 24.971 27.3697 25.2904C27.3117 25.36 27.4045 25.5342 27.3697 25.6561C27.3505 25.7576 27.3535 25.8621 27.3785 25.9623C27.4036 26.0626 27.4501 26.1562 27.5148 26.2367C27.5828 26.3479 27.6114 26.4788 27.596 26.6082C27.5612 26.9972 27.48 27.3862 27.4568 27.7694C27.4491 28.0032 27.4885 28.2362 27.5728 28.4545C27.7701 28.9538 27.9965 29.4414 28.2286 29.9233C28.4608 30.4052 28.7741 30.9916 29.0527 31.5257C29.1638 31.722 29.22 31.9446 29.2152 32.1701C29.2287 32.5106 29.3417 32.8396 29.5402 33.1164C29.966 33.7774 30.2028 34.5424 30.225 35.3284C30.3227 36.0426 30.518 36.74 30.8053 37.4011C30.9969 37.941 31.1826 38.4867 31.3857 39.015C31.5213 39.3154 31.6805 39.6047 31.8616 39.8801C32.0125 40.1297 32.1924 40.3678 32.3723 40.629C32.5754 40.5013 32.7089 40.629 32.7611 40.8148C32.9468 41.4767 33.6084 41.5812 34.1133 41.5753C34.3304 41.5341 34.5398 41.4597 34.7343 41.3547C35.0645 41.1595 35.4524 41.0856 35.8311 41.1457C36.002 41.1934 36.1527 41.2953 36.2606 41.436C40.1715 38.6965 43.1097 34.7832 44.65 30.2624C46.1903 25.7416 46.2527 20.8477 44.8283 16.289C43.4039 11.7303 40.5666 7.74326 36.7268 4.90477C32.887 2.06628 28.2441 0.523616 23.4698 0.500003Z" fill="#F55C30"/>
</g>
<defs>
<clipPath id="clip0_902_482">
<rect width="45" height="45" fill="white" transform="translate(0.969727 0.5)"/>
</clipPath>
</defs>
</svg>
