<svg width="16" height="17" viewBox="0 0 16 17" fill="none" xmlns="http://www.w3.org/2000/svg">
<path d="M14.5 2.97852H1.5C1.22344 2.97852 1 3.20195 1 3.47852V13.4785C1 13.7551 1.22344 13.9785 1.5 13.9785H14.5C14.7766 13.9785 15 13.7551 15 13.4785V3.47852C15 3.20195 14.7766 2.97852 14.5 2.97852ZM13.875 4.70977V12.8535H2.125V4.70977L1.69375 4.37383L2.30781 3.58477L2.97656 4.10508H13.025L13.6938 3.58477L14.3078 4.37383L13.875 4.70977ZM13.025 4.10352L8 8.00977L2.975 4.10352L2.30625 3.5832L1.69219 4.37227L2.12344 4.7082L7.46094 8.8582C7.61444 8.97745 7.80328 9.04219 7.99766 9.04219C8.19203 9.04219 8.38088 8.97745 8.53438 8.8582L13.875 4.70977L14.3062 4.37383L13.6922 3.58477L13.025 4.10352Z" fill="#F2F2F2"/>
</svg>
