<svg width="17" height="17" viewBox="0 0 17 17" fill="none" xmlns="http://www.w3.org/2000/svg">
<path d="M14.2608 8.51521L3.26077 3.01521C3.17455 2.97209 3.07771 2.95482 2.98191 2.96546C2.8861 2.97611 2.79542 3.01422 2.72077 3.07521C2.64948 3.13495 2.59627 3.2134 2.56712 3.30173C2.53798 3.39006 2.53404 3.48477 2.55577 3.57521L4.03577 8.96021L2.53577 14.3302C2.51538 14.4057 2.513 14.485 2.52882 14.5616C2.54464 14.6382 2.57822 14.7101 2.62685 14.7713C2.67548 14.8326 2.73782 14.8816 2.80884 14.9144C2.87986 14.9472 2.95759 14.9629 3.03577 14.9602C3.11404 14.9597 3.19111 14.9409 3.26077 14.9052L14.2608 9.40521C14.3427 9.36325 14.4114 9.2995 14.4594 9.22099C14.5074 9.14247 14.5328 9.05223 14.5328 8.96021C14.5328 8.86819 14.5074 8.77795 14.4594 8.69943C14.4114 8.62091 14.3427 8.55717 14.2608 8.51521ZM3.81077 13.5152L4.91577 9.46021H9.53577V8.46021H4.91577L3.81077 4.40521L12.9158 8.96021L3.81077 13.5152Z" fill="white"/>
</svg>
