<svg width="27" height="27" viewBox="0 0 27 27" fill="none" xmlns="http://www.w3.org/2000/svg">
<circle cx="13.3602" cy="13.4297" r="12.8388" fill="white"/>
<path d="M18.5063 10.1435C18.1178 10.311 17.695 10.4316 17.2596 10.4786C17.7117 10.21 18.0502 9.78571 18.2117 9.28526C17.7875 9.53763 17.3228 9.71459 16.8381 9.80831C16.6356 9.59176 16.3906 9.41925 16.1184 9.30152C15.8463 9.18379 15.5528 9.12337 15.2563 9.12403C14.0566 9.12403 13.0917 10.0965 13.0917 11.2898C13.0917 11.4574 13.112 11.625 13.145 11.7862C11.3487 11.6923 9.74651 10.8341 8.68137 9.52012C8.48729 9.85162 8.38559 10.2291 8.38684 10.6132C8.38684 11.3648 8.76897 12.0274 9.35168 12.4172C9.00828 12.4037 8.67292 12.3093 8.37288 12.1417V12.1684C8.37288 13.2208 9.11682 14.093 10.1083 14.2936C9.92216 14.3419 9.73065 14.3667 9.53831 14.3672C9.39739 14.3672 9.26409 14.3532 9.12952 14.3342C9.40374 15.1924 10.2023 15.8157 11.1531 15.836C10.4092 16.4188 9.47737 16.7615 8.46555 16.7615C8.28401 16.7615 8.11643 16.7552 7.9425 16.7349C8.90227 17.3506 10.041 17.7061 11.2674 17.7061C15.2487 17.7061 17.4272 14.4078 17.4272 11.545C17.4272 11.4511 17.4272 11.3571 17.4208 11.2632C17.8423 10.9547 18.2117 10.5726 18.5063 10.1435Z" fill="#272727"/>
</svg>
