<svg width="25" height="26" viewBox="0 0 25 26" fill="none" xmlns="http://www.w3.org/2000/svg">
<g opacity="0.7">
<path d="M20.9595 19.1426C20.499 18.0517 19.8307 17.0608 18.9918 16.2251C18.1554 15.387 17.1647 14.7188 16.0743 14.2573C16.0645 14.2524 16.0547 14.25 16.045 14.2451C17.566 13.1465 18.5547 11.3569 18.5547 9.33789C18.5547 5.99316 15.8448 3.2832 12.5001 3.2832C9.15533 3.2832 6.44537 5.99316 6.44537 9.33789C6.44537 11.3569 7.43414 13.1465 8.95514 14.2476C8.94537 14.2524 8.93561 14.2549 8.92584 14.2598C7.83209 14.7212 6.85065 15.3828 6.00836 16.2275C5.17025 17.0639 4.50203 18.0546 4.04059 19.145C3.58727 20.2125 3.34279 21.357 3.32037 22.5166C3.31972 22.5427 3.32429 22.5686 3.33382 22.5928C3.34334 22.6171 3.35762 22.6392 3.37582 22.6579C3.39403 22.6765 3.41578 22.6914 3.4398 22.7015C3.46382 22.7116 3.48962 22.7168 3.51569 22.7168H4.98053C5.08795 22.7168 5.1734 22.6313 5.17584 22.5264C5.22467 20.6416 5.98151 18.8765 7.3194 17.5386C8.70367 16.1543 10.5421 15.3926 12.5001 15.3926C14.4581 15.3926 16.2964 16.1543 17.6807 17.5386C19.0186 18.8765 19.7755 20.6416 19.8243 22.5264C19.8267 22.6338 19.9122 22.7168 20.0196 22.7168H21.4844C21.5105 22.7168 21.5363 22.7116 21.5603 22.7015C21.5843 22.6914 21.6061 22.6765 21.6243 22.6579C21.6425 22.6392 21.6568 22.6171 21.6663 22.5928C21.6758 22.5686 21.6804 22.5427 21.6798 22.5166C21.6553 21.3496 21.4136 20.2144 20.9595 19.1426ZM12.5001 13.5371C11.3795 13.5371 10.3248 13.1001 9.53131 12.3066C8.73785 11.5132 8.30084 10.4585 8.30084 9.33789C8.30084 8.21729 8.73785 7.1626 9.53131 6.36914C10.3248 5.57568 11.3795 5.13867 12.5001 5.13867C13.6207 5.13867 14.6754 5.57568 15.4688 6.36914C16.2623 7.1626 16.6993 8.21729 16.6993 9.33789C16.6993 10.4585 16.2623 11.5132 15.4688 12.3066C14.6754 13.1001 13.6207 13.5371 12.5001 13.5371Z" fill="#343434"/>
</g>
</svg>
