<svg width="16" height="17" viewBox="0 0 16 17" fill="none" xmlns="http://www.w3.org/2000/svg">
<g clip-path="url(#clip0_6_57)">
<path d="M11.664 10.067C11.4635 9.96552 10.487 9.48902 10.3045 9.42102C10.122 9.35602 9.9895 9.32202 9.8565 9.52252C9.7265 9.71802 9.3435 10.1655 9.2265 10.296C9.1095 10.4265 8.9945 10.4365 8.797 10.348C8.5965 10.2465 7.956 10.038 7.1955 9.35602C6.6015 8.82752 6.206 8.17652 6.0885 7.97602C5.9715 7.77802 6.0755 7.66602 6.1745 7.56702C6.2655 7.47602 6.375 7.33802 6.4765 7.21802C6.573 7.09802 6.604 7.01752 6.6745 6.88752C6.7395 6.74702 6.706 6.63752 6.6565 6.53852C6.607 6.43952 6.2085 5.45802 6.042 5.06702C5.883 4.67902 5.7165 4.72852 5.594 4.72852C5.4795 4.71802 5.3465 4.71802 5.214 4.71802C5.0815 4.71802 4.865 4.76752 4.6825 4.95752C4.5 5.15802 3.9845 5.63702 3.9845 6.60602C3.9845 7.57752 4.698 8.51752 4.797 8.65802C4.8985 8.78802 6.2005 10.788 8.198 11.6475C8.6745 11.848 9.0445 11.968 9.3335 12.067C9.81 12.218 10.245 12.197 10.5885 12.1475C10.9685 12.085 11.7655 11.6655 11.9325 11.197C12.102 10.7255 12.102 10.335 12.0525 10.2465C12.003 10.1555 11.873 10.106 11.6725 10.0175L11.664 10.067ZM8.0415 14.9785H8.031C6.8485 14.9785 5.6795 14.658 4.6585 14.059L4.419 13.916L1.919 14.567L2.591 12.1345L2.4295 11.8845C1.76923 10.8347 1.41895 9.61971 1.419 8.37952C1.419 4.74952 4.3905 1.78852 8.0465 1.78852C9.8175 1.78852 11.479 2.47852 12.729 3.72852C13.3456 4.33781 13.8348 5.06381 14.1678 5.86414C14.5009 6.66448 14.6713 7.52314 14.669 8.39002C14.664 12.0175 11.695 14.9785 8.044 14.9785H8.0415ZM13.6795 2.77802C12.1585 1.30902 10.1585 0.478516 8.031 0.478516C3.643 0.478516 0.07 4.03602 0.0675 8.40802C0.0675 9.80402 0.432 11.166 1.13 12.3715L0 16.4785L4.224 15.377C5.39415 16.0079 6.70212 16.3397 8.0315 16.343H8.034C12.4245 16.343 15.9975 12.7855 16 8.41052C16 6.29352 15.1745 4.30102 13.6695 2.80352L13.6795 2.77802Z" fill="#F2F2F2"/>
</g>
<defs>
<clipPath id="clip0_6_57">
<rect width="16" height="16" fill="white" transform="translate(0 0.478516)"/>
</clipPath>
</defs>
</svg>
