<svg width="26" height="27" viewBox="0 0 26 27" fill="none" xmlns="http://www.w3.org/2000/svg">
<circle cx="12.9757" cy="13.7539" r="12.8388" fill="white"/>
<path d="M18.8034 10.9664C18.7342 10.7211 18.5984 10.4974 18.4098 10.3177C18.2211 10.138 17.9861 10.0086 17.7283 9.94245C16.7794 9.69971 12.9757 9.69971 12.9757 9.69971C12.9757 9.69971 9.17203 9.69971 8.22315 9.94116C7.96525 10.0071 7.73014 10.1364 7.54142 10.3162C7.35271 10.4959 7.21703 10.7197 7.14802 10.9651C6.89416 11.8689 6.89417 13.7541 6.89417 13.7541C6.89417 13.7541 6.89416 15.6392 7.14802 16.5418C7.28784 17.0402 7.70051 17.4327 8.22315 17.5657C9.17203 17.8085 12.9757 17.8085 12.9757 17.8085C12.9757 17.8085 16.7794 17.8085 17.7283 17.5657C18.2523 17.4327 18.6636 17.0402 18.8034 16.5418C19.0573 15.6392 19.0573 13.7541 19.0573 13.7541C19.0573 13.7541 19.0573 11.8689 18.8034 10.9664ZM11.7676 15.4843V12.0239L14.9169 13.7412L11.7676 15.4843Z" fill="#272727"/>
</svg>
